G04 #@! TF.GenerationSoftware,KiCad,Pcbnew,(5.0.2)-1*
G04 #@! TF.CreationDate,2020-02-01T17:43:23-05:00*
G04 #@! TF.ProjectId,ZM1350-display,5a4d3133-3530-42d6-9469-73706c61792e,rev?*
G04 #@! TF.SameCoordinates,Original*
G04 #@! TF.FileFunction,Legend,Top*
G04 #@! TF.FilePolarity,Positive*
%FSLAX46Y46*%
G04 Gerber Fmt 4.6, Leading zero omitted, Abs format (unit mm)*
G04 Created by KiCad (PCBNEW (5.0.2)-1) date 2/1/2020 5:43:23 PM*
%MOMM*%
%LPD*%
G01*
G04 APERTURE LIST*
%ADD10C,0.120000*%
%ADD11C,0.150000*%
G04 APERTURE END LIST*
D10*
G04 #@! TO.C,U15*
X55443400Y-111083000D02*
X55443400Y-109883000D01*
X55443400Y-111083000D02*
X54983400Y-111083000D01*
X55363400Y-107423000D02*
X52283400Y-107423000D01*
X49783400Y-111083000D02*
G75*
G03X54983400Y-111083000I2600000J1100000D01*
G01*
X49783400Y-111083000D02*
X49563400Y-111083000D01*
D11*
G04 #@! TO.C,SW1*
X57983100Y-165435000D02*
X47315100Y-165435000D01*
X47315100Y-165435000D02*
X47315100Y-151592000D01*
X47315100Y-151592000D02*
X57983100Y-151592000D01*
X57983100Y-151592000D02*
X57983100Y-165435000D01*
G04 #@! TO.C,B8*
X448541476Y-135700380D02*
X449208142Y-135700380D01*
X448541476Y-136700380D01*
X449208142Y-136700380D01*
X449589095Y-136700380D02*
X449589095Y-135700380D01*
X449922428Y-136414666D01*
X450255761Y-135700380D01*
X450255761Y-136700380D01*
X451255761Y-136700380D02*
X450684333Y-136700380D01*
X450970047Y-136700380D02*
X450970047Y-135700380D01*
X450874809Y-135843238D01*
X450779571Y-135938476D01*
X450684333Y-135986095D01*
X451589095Y-135700380D02*
X452208142Y-135700380D01*
X451874809Y-136081333D01*
X452017666Y-136081333D01*
X452112904Y-136128952D01*
X452160523Y-136176571D01*
X452208142Y-136271809D01*
X452208142Y-136509904D01*
X452160523Y-136605142D01*
X452112904Y-136652761D01*
X452017666Y-136700380D01*
X451731952Y-136700380D01*
X451636714Y-136652761D01*
X451589095Y-136605142D01*
X453112904Y-135700380D02*
X452636714Y-135700380D01*
X452589095Y-136176571D01*
X452636714Y-136128952D01*
X452731952Y-136081333D01*
X452970047Y-136081333D01*
X453065285Y-136128952D01*
X453112904Y-136176571D01*
X453160523Y-136271809D01*
X453160523Y-136509904D01*
X453112904Y-136605142D01*
X453065285Y-136652761D01*
X452970047Y-136700380D01*
X452731952Y-136700380D01*
X452636714Y-136652761D01*
X452589095Y-136605142D01*
X453779571Y-135700380D02*
X453874809Y-135700380D01*
X453970047Y-135748000D01*
X454017666Y-135795619D01*
X454065285Y-135890857D01*
X454112904Y-136081333D01*
X454112904Y-136319428D01*
X454065285Y-136509904D01*
X454017666Y-136605142D01*
X453970047Y-136652761D01*
X453874809Y-136700380D01*
X453779571Y-136700380D01*
X453684333Y-136652761D01*
X453636714Y-136605142D01*
X453589095Y-136509904D01*
X453541476Y-136319428D01*
X453541476Y-136081333D01*
X453589095Y-135890857D01*
X453636714Y-135795619D01*
X453684333Y-135748000D01*
X453779571Y-135700380D01*
G04 #@! TO.C,B7*
X403541476Y-135700380D02*
X404208142Y-135700380D01*
X403541476Y-136700380D01*
X404208142Y-136700380D01*
X404589095Y-136700380D02*
X404589095Y-135700380D01*
X404922428Y-136414666D01*
X405255761Y-135700380D01*
X405255761Y-136700380D01*
X406255761Y-136700380D02*
X405684333Y-136700380D01*
X405970047Y-136700380D02*
X405970047Y-135700380D01*
X405874809Y-135843238D01*
X405779571Y-135938476D01*
X405684333Y-135986095D01*
X406589095Y-135700380D02*
X407208142Y-135700380D01*
X406874809Y-136081333D01*
X407017666Y-136081333D01*
X407112904Y-136128952D01*
X407160523Y-136176571D01*
X407208142Y-136271809D01*
X407208142Y-136509904D01*
X407160523Y-136605142D01*
X407112904Y-136652761D01*
X407017666Y-136700380D01*
X406731952Y-136700380D01*
X406636714Y-136652761D01*
X406589095Y-136605142D01*
X408112904Y-135700380D02*
X407636714Y-135700380D01*
X407589095Y-136176571D01*
X407636714Y-136128952D01*
X407731952Y-136081333D01*
X407970047Y-136081333D01*
X408065285Y-136128952D01*
X408112904Y-136176571D01*
X408160523Y-136271809D01*
X408160523Y-136509904D01*
X408112904Y-136605142D01*
X408065285Y-136652761D01*
X407970047Y-136700380D01*
X407731952Y-136700380D01*
X407636714Y-136652761D01*
X407589095Y-136605142D01*
X408779571Y-135700380D02*
X408874809Y-135700380D01*
X408970047Y-135748000D01*
X409017666Y-135795619D01*
X409065285Y-135890857D01*
X409112904Y-136081333D01*
X409112904Y-136319428D01*
X409065285Y-136509904D01*
X409017666Y-136605142D01*
X408970047Y-136652761D01*
X408874809Y-136700380D01*
X408779571Y-136700380D01*
X408684333Y-136652761D01*
X408636714Y-136605142D01*
X408589095Y-136509904D01*
X408541476Y-136319428D01*
X408541476Y-136081333D01*
X408589095Y-135890857D01*
X408636714Y-135795619D01*
X408684333Y-135748000D01*
X408779571Y-135700380D01*
G04 #@! TO.C,B6*
X133541476Y-135700380D02*
X134208142Y-135700380D01*
X133541476Y-136700380D01*
X134208142Y-136700380D01*
X134589095Y-136700380D02*
X134589095Y-135700380D01*
X134922428Y-136414666D01*
X135255761Y-135700380D01*
X135255761Y-136700380D01*
X136255761Y-136700380D02*
X135684333Y-136700380D01*
X135970047Y-136700380D02*
X135970047Y-135700380D01*
X135874809Y-135843238D01*
X135779571Y-135938476D01*
X135684333Y-135986095D01*
X136589095Y-135700380D02*
X137208142Y-135700380D01*
X136874809Y-136081333D01*
X137017666Y-136081333D01*
X137112904Y-136128952D01*
X137160523Y-136176571D01*
X137208142Y-136271809D01*
X137208142Y-136509904D01*
X137160523Y-136605142D01*
X137112904Y-136652761D01*
X137017666Y-136700380D01*
X136731952Y-136700380D01*
X136636714Y-136652761D01*
X136589095Y-136605142D01*
X138112904Y-135700380D02*
X137636714Y-135700380D01*
X137589095Y-136176571D01*
X137636714Y-136128952D01*
X137731952Y-136081333D01*
X137970047Y-136081333D01*
X138065285Y-136128952D01*
X138112904Y-136176571D01*
X138160523Y-136271809D01*
X138160523Y-136509904D01*
X138112904Y-136605142D01*
X138065285Y-136652761D01*
X137970047Y-136700380D01*
X137731952Y-136700380D01*
X137636714Y-136652761D01*
X137589095Y-136605142D01*
X138779571Y-135700380D02*
X138874809Y-135700380D01*
X138970047Y-135748000D01*
X139017666Y-135795619D01*
X139065285Y-135890857D01*
X139112904Y-136081333D01*
X139112904Y-136319428D01*
X139065285Y-136509904D01*
X139017666Y-136605142D01*
X138970047Y-136652761D01*
X138874809Y-136700380D01*
X138779571Y-136700380D01*
X138684333Y-136652761D01*
X138636714Y-136605142D01*
X138589095Y-136509904D01*
X138541476Y-136319428D01*
X138541476Y-136081333D01*
X138589095Y-135890857D01*
X138636714Y-135795619D01*
X138684333Y-135748000D01*
X138779571Y-135700380D01*
G04 #@! TO.C,B5*
X358541476Y-135700380D02*
X359208142Y-135700380D01*
X358541476Y-136700380D01*
X359208142Y-136700380D01*
X359589095Y-136700380D02*
X359589095Y-135700380D01*
X359922428Y-136414666D01*
X360255761Y-135700380D01*
X360255761Y-136700380D01*
X361255761Y-136700380D02*
X360684333Y-136700380D01*
X360970047Y-136700380D02*
X360970047Y-135700380D01*
X360874809Y-135843238D01*
X360779571Y-135938476D01*
X360684333Y-135986095D01*
X361589095Y-135700380D02*
X362208142Y-135700380D01*
X361874809Y-136081333D01*
X362017666Y-136081333D01*
X362112904Y-136128952D01*
X362160523Y-136176571D01*
X362208142Y-136271809D01*
X362208142Y-136509904D01*
X362160523Y-136605142D01*
X362112904Y-136652761D01*
X362017666Y-136700380D01*
X361731952Y-136700380D01*
X361636714Y-136652761D01*
X361589095Y-136605142D01*
X363112904Y-135700380D02*
X362636714Y-135700380D01*
X362589095Y-136176571D01*
X362636714Y-136128952D01*
X362731952Y-136081333D01*
X362970047Y-136081333D01*
X363065285Y-136128952D01*
X363112904Y-136176571D01*
X363160523Y-136271809D01*
X363160523Y-136509904D01*
X363112904Y-136605142D01*
X363065285Y-136652761D01*
X362970047Y-136700380D01*
X362731952Y-136700380D01*
X362636714Y-136652761D01*
X362589095Y-136605142D01*
X363779571Y-135700380D02*
X363874809Y-135700380D01*
X363970047Y-135748000D01*
X364017666Y-135795619D01*
X364065285Y-135890857D01*
X364112904Y-136081333D01*
X364112904Y-136319428D01*
X364065285Y-136509904D01*
X364017666Y-136605142D01*
X363970047Y-136652761D01*
X363874809Y-136700380D01*
X363779571Y-136700380D01*
X363684333Y-136652761D01*
X363636714Y-136605142D01*
X363589095Y-136509904D01*
X363541476Y-136319428D01*
X363541476Y-136081333D01*
X363589095Y-135890857D01*
X363636714Y-135795619D01*
X363684333Y-135748000D01*
X363779571Y-135700380D01*
G04 #@! TO.C,B4*
X313541476Y-135700380D02*
X314208142Y-135700380D01*
X313541476Y-136700380D01*
X314208142Y-136700380D01*
X314589095Y-136700380D02*
X314589095Y-135700380D01*
X314922428Y-136414666D01*
X315255761Y-135700380D01*
X315255761Y-136700380D01*
X316255761Y-136700380D02*
X315684333Y-136700380D01*
X315970047Y-136700380D02*
X315970047Y-135700380D01*
X315874809Y-135843238D01*
X315779571Y-135938476D01*
X315684333Y-135986095D01*
X316589095Y-135700380D02*
X317208142Y-135700380D01*
X316874809Y-136081333D01*
X317017666Y-136081333D01*
X317112904Y-136128952D01*
X317160523Y-136176571D01*
X317208142Y-136271809D01*
X317208142Y-136509904D01*
X317160523Y-136605142D01*
X317112904Y-136652761D01*
X317017666Y-136700380D01*
X316731952Y-136700380D01*
X316636714Y-136652761D01*
X316589095Y-136605142D01*
X318112904Y-135700380D02*
X317636714Y-135700380D01*
X317589095Y-136176571D01*
X317636714Y-136128952D01*
X317731952Y-136081333D01*
X317970047Y-136081333D01*
X318065285Y-136128952D01*
X318112904Y-136176571D01*
X318160523Y-136271809D01*
X318160523Y-136509904D01*
X318112904Y-136605142D01*
X318065285Y-136652761D01*
X317970047Y-136700380D01*
X317731952Y-136700380D01*
X317636714Y-136652761D01*
X317589095Y-136605142D01*
X318779571Y-135700380D02*
X318874809Y-135700380D01*
X318970047Y-135748000D01*
X319017666Y-135795619D01*
X319065285Y-135890857D01*
X319112904Y-136081333D01*
X319112904Y-136319428D01*
X319065285Y-136509904D01*
X319017666Y-136605142D01*
X318970047Y-136652761D01*
X318874809Y-136700380D01*
X318779571Y-136700380D01*
X318684333Y-136652761D01*
X318636714Y-136605142D01*
X318589095Y-136509904D01*
X318541476Y-136319428D01*
X318541476Y-136081333D01*
X318589095Y-135890857D01*
X318636714Y-135795619D01*
X318684333Y-135748000D01*
X318779571Y-135700380D01*
G04 #@! TO.C,B3*
X268541476Y-135700380D02*
X269208142Y-135700380D01*
X268541476Y-136700380D01*
X269208142Y-136700380D01*
X269589095Y-136700380D02*
X269589095Y-135700380D01*
X269922428Y-136414666D01*
X270255761Y-135700380D01*
X270255761Y-136700380D01*
X271255761Y-136700380D02*
X270684333Y-136700380D01*
X270970047Y-136700380D02*
X270970047Y-135700380D01*
X270874809Y-135843238D01*
X270779571Y-135938476D01*
X270684333Y-135986095D01*
X271589095Y-135700380D02*
X272208142Y-135700380D01*
X271874809Y-136081333D01*
X272017666Y-136081333D01*
X272112904Y-136128952D01*
X272160523Y-136176571D01*
X272208142Y-136271809D01*
X272208142Y-136509904D01*
X272160523Y-136605142D01*
X272112904Y-136652761D01*
X272017666Y-136700380D01*
X271731952Y-136700380D01*
X271636714Y-136652761D01*
X271589095Y-136605142D01*
X273112904Y-135700380D02*
X272636714Y-135700380D01*
X272589095Y-136176571D01*
X272636714Y-136128952D01*
X272731952Y-136081333D01*
X272970047Y-136081333D01*
X273065285Y-136128952D01*
X273112904Y-136176571D01*
X273160523Y-136271809D01*
X273160523Y-136509904D01*
X273112904Y-136605142D01*
X273065285Y-136652761D01*
X272970047Y-136700380D01*
X272731952Y-136700380D01*
X272636714Y-136652761D01*
X272589095Y-136605142D01*
X273779571Y-135700380D02*
X273874809Y-135700380D01*
X273970047Y-135748000D01*
X274017666Y-135795619D01*
X274065285Y-135890857D01*
X274112904Y-136081333D01*
X274112904Y-136319428D01*
X274065285Y-136509904D01*
X274017666Y-136605142D01*
X273970047Y-136652761D01*
X273874809Y-136700380D01*
X273779571Y-136700380D01*
X273684333Y-136652761D01*
X273636714Y-136605142D01*
X273589095Y-136509904D01*
X273541476Y-136319428D01*
X273541476Y-136081333D01*
X273589095Y-135890857D01*
X273636714Y-135795619D01*
X273684333Y-135748000D01*
X273779571Y-135700380D01*
G04 #@! TO.C,B2*
X223541476Y-135700380D02*
X224208142Y-135700380D01*
X223541476Y-136700380D01*
X224208142Y-136700380D01*
X224589095Y-136700380D02*
X224589095Y-135700380D01*
X224922428Y-136414666D01*
X225255761Y-135700380D01*
X225255761Y-136700380D01*
X226255761Y-136700380D02*
X225684333Y-136700380D01*
X225970047Y-136700380D02*
X225970047Y-135700380D01*
X225874809Y-135843238D01*
X225779571Y-135938476D01*
X225684333Y-135986095D01*
X226589095Y-135700380D02*
X227208142Y-135700380D01*
X226874809Y-136081333D01*
X227017666Y-136081333D01*
X227112904Y-136128952D01*
X227160523Y-136176571D01*
X227208142Y-136271809D01*
X227208142Y-136509904D01*
X227160523Y-136605142D01*
X227112904Y-136652761D01*
X227017666Y-136700380D01*
X226731952Y-136700380D01*
X226636714Y-136652761D01*
X226589095Y-136605142D01*
X228112904Y-135700380D02*
X227636714Y-135700380D01*
X227589095Y-136176571D01*
X227636714Y-136128952D01*
X227731952Y-136081333D01*
X227970047Y-136081333D01*
X228065285Y-136128952D01*
X228112904Y-136176571D01*
X228160523Y-136271809D01*
X228160523Y-136509904D01*
X228112904Y-136605142D01*
X228065285Y-136652761D01*
X227970047Y-136700380D01*
X227731952Y-136700380D01*
X227636714Y-136652761D01*
X227589095Y-136605142D01*
X228779571Y-135700380D02*
X228874809Y-135700380D01*
X228970047Y-135748000D01*
X229017666Y-135795619D01*
X229065285Y-135890857D01*
X229112904Y-136081333D01*
X229112904Y-136319428D01*
X229065285Y-136509904D01*
X229017666Y-136605142D01*
X228970047Y-136652761D01*
X228874809Y-136700380D01*
X228779571Y-136700380D01*
X228684333Y-136652761D01*
X228636714Y-136605142D01*
X228589095Y-136509904D01*
X228541476Y-136319428D01*
X228541476Y-136081333D01*
X228589095Y-135890857D01*
X228636714Y-135795619D01*
X228684333Y-135748000D01*
X228779571Y-135700380D01*
G04 #@! TO.C,B1*
X178541476Y-135700380D02*
X179208142Y-135700380D01*
X178541476Y-136700380D01*
X179208142Y-136700380D01*
X179589095Y-136700380D02*
X179589095Y-135700380D01*
X179922428Y-136414666D01*
X180255761Y-135700380D01*
X180255761Y-136700380D01*
X181255761Y-136700380D02*
X180684333Y-136700380D01*
X180970047Y-136700380D02*
X180970047Y-135700380D01*
X180874809Y-135843238D01*
X180779571Y-135938476D01*
X180684333Y-135986095D01*
X181589095Y-135700380D02*
X182208142Y-135700380D01*
X181874809Y-136081333D01*
X182017666Y-136081333D01*
X182112904Y-136128952D01*
X182160523Y-136176571D01*
X182208142Y-136271809D01*
X182208142Y-136509904D01*
X182160523Y-136605142D01*
X182112904Y-136652761D01*
X182017666Y-136700380D01*
X181731952Y-136700380D01*
X181636714Y-136652761D01*
X181589095Y-136605142D01*
X183112904Y-135700380D02*
X182636714Y-135700380D01*
X182589095Y-136176571D01*
X182636714Y-136128952D01*
X182731952Y-136081333D01*
X182970047Y-136081333D01*
X183065285Y-136128952D01*
X183112904Y-136176571D01*
X183160523Y-136271809D01*
X183160523Y-136509904D01*
X183112904Y-136605142D01*
X183065285Y-136652761D01*
X182970047Y-136700380D01*
X182731952Y-136700380D01*
X182636714Y-136652761D01*
X182589095Y-136605142D01*
X183779571Y-135700380D02*
X183874809Y-135700380D01*
X183970047Y-135748000D01*
X184017666Y-135795619D01*
X184065285Y-135890857D01*
X184112904Y-136081333D01*
X184112904Y-136319428D01*
X184065285Y-136509904D01*
X184017666Y-136605142D01*
X183970047Y-136652761D01*
X183874809Y-136700380D01*
X183779571Y-136700380D01*
X183684333Y-136652761D01*
X183636714Y-136605142D01*
X183589095Y-136509904D01*
X183541476Y-136319428D01*
X183541476Y-136081333D01*
X183589095Y-135890857D01*
X183636714Y-135795619D01*
X183684333Y-135748000D01*
X183779571Y-135700380D01*
G04 #@! TO.C,MH1*
X54683826Y-92121000D02*
X54683826Y-91121000D01*
X55017160Y-91835286D01*
X55350493Y-91121000D01*
X55350493Y-92121000D01*
X55826683Y-92121000D02*
X55826683Y-91121000D01*
X55826683Y-91597191D02*
X56398112Y-91597191D01*
X56398112Y-92121000D02*
X56398112Y-91121000D01*
X57398112Y-92121000D02*
X56826683Y-92121000D01*
X57112398Y-92121000D02*
X57112398Y-91121000D01*
X57017160Y-91263858D01*
X56921921Y-91359096D01*
X56826683Y-91406715D01*
G04 #@! TO.C,MH2*
X48491266Y-183196380D02*
X48491266Y-182196380D01*
X48824600Y-182910666D01*
X49157933Y-182196380D01*
X49157933Y-183196380D01*
X49634123Y-183196380D02*
X49634123Y-182196380D01*
X49634123Y-182672571D02*
X50205552Y-182672571D01*
X50205552Y-183196380D02*
X50205552Y-182196380D01*
X50634123Y-182291619D02*
X50681742Y-182244000D01*
X50776980Y-182196380D01*
X51015076Y-182196380D01*
X51110314Y-182244000D01*
X51157933Y-182291619D01*
X51205552Y-182386857D01*
X51205552Y-182482095D01*
X51157933Y-182624952D01*
X50586504Y-183196380D01*
X51205552Y-183196380D01*
G04 #@! TO.C,MH4*
X461256666Y-183201380D02*
X461256666Y-182201380D01*
X461590000Y-182915666D01*
X461923333Y-182201380D01*
X461923333Y-183201380D01*
X462399523Y-183201380D02*
X462399523Y-182201380D01*
X462399523Y-182677571D02*
X462970952Y-182677571D01*
X462970952Y-183201380D02*
X462970952Y-182201380D01*
X463875714Y-182534714D02*
X463875714Y-183201380D01*
X463637619Y-182153761D02*
X463399523Y-182868047D01*
X464018571Y-182868047D01*
G04 #@! TO.C,U15*
X51005304Y-105985380D02*
X51005304Y-106794904D01*
X51052923Y-106890142D01*
X51100542Y-106937761D01*
X51195780Y-106985380D01*
X51386257Y-106985380D01*
X51481495Y-106937761D01*
X51529114Y-106890142D01*
X51576733Y-106794904D01*
X51576733Y-105985380D01*
X52576733Y-106985380D02*
X52005304Y-106985380D01*
X52291019Y-106985380D02*
X52291019Y-105985380D01*
X52195780Y-106128238D01*
X52100542Y-106223476D01*
X52005304Y-106271095D01*
X53481495Y-105985380D02*
X53005304Y-105985380D01*
X52957685Y-106461571D01*
X53005304Y-106413952D01*
X53100542Y-106366333D01*
X53338638Y-106366333D01*
X53433876Y-106413952D01*
X53481495Y-106461571D01*
X53529114Y-106556809D01*
X53529114Y-106794904D01*
X53481495Y-106890142D01*
X53433876Y-106937761D01*
X53338638Y-106985380D01*
X53100542Y-106985380D01*
X53005304Y-106937761D01*
X52957685Y-106890142D01*
G04 #@! TO.C,SW1*
X46703861Y-159148333D02*
X46751480Y-159005476D01*
X46751480Y-158767380D01*
X46703861Y-158672142D01*
X46656242Y-158624523D01*
X46561004Y-158576904D01*
X46465766Y-158576904D01*
X46370528Y-158624523D01*
X46322909Y-158672142D01*
X46275290Y-158767380D01*
X46227671Y-158957857D01*
X46180052Y-159053095D01*
X46132433Y-159100714D01*
X46037195Y-159148333D01*
X45941957Y-159148333D01*
X45846719Y-159100714D01*
X45799100Y-159053095D01*
X45751480Y-158957857D01*
X45751480Y-158719761D01*
X45799100Y-158576904D01*
X45751480Y-158243571D02*
X46751480Y-158005476D01*
X46037195Y-157815000D01*
X46751480Y-157624523D01*
X45751480Y-157386428D01*
X46751480Y-156481666D02*
X46751480Y-157053095D01*
X46751480Y-156767380D02*
X45751480Y-156767380D01*
X45894338Y-156862619D01*
X45989576Y-156957857D01*
X46037195Y-157053095D01*
G04 #@! TO.C,MH3*
X454586226Y-92791540D02*
X454586226Y-91791540D01*
X454919560Y-92505826D01*
X455252893Y-91791540D01*
X455252893Y-92791540D01*
X455729083Y-92791540D02*
X455729083Y-91791540D01*
X455729083Y-92267731D02*
X456300512Y-92267731D01*
X456300512Y-92791540D02*
X456300512Y-91791540D01*
X456681464Y-91791540D02*
X457300512Y-91791540D01*
X456967179Y-92172493D01*
X457110036Y-92172493D01*
X457205274Y-92220112D01*
X457252893Y-92267731D01*
X457300512Y-92362969D01*
X457300512Y-92601064D01*
X457252893Y-92696302D01*
X457205274Y-92743921D01*
X457110036Y-92791540D01*
X456824321Y-92791540D01*
X456729083Y-92743921D01*
X456681464Y-92696302D01*
G04 #@! TD*
M02*
