M48
;DRILL file {KiCad (5.0.2)-1} date 2/1/2020 5:43:12 PM
;FORMAT={3:3/ absolute / metric / suppress leading zeros}
FMAT,2
METRIC,TZ
T1C0.400
T2C0.750
T3C0.800
T4C0.900
T5C1.000
T6C1.100
T7C1.450
T8C1.500
T9C2.261
T10C3.000
T11C6.000
T12C7.000
%
G90
G05
T1
X104625Y-104627
X106065Y-134389
X107248Y-105353
X109213Y-134389
X110084Y-141654
X110894Y-143506
X115443Y-107268
X131590Y-121384
X144965Y-129758
X153949Y-134569
X156126Y-108463
X156785Y-105731
X159689Y-105498
X160991Y-108427
X161692Y-147144
X162421Y-146237
X164380Y-107877
X165236Y-122432
X175716Y-111375
X185985Y-129758
X194186Y-101689
X197311Y-107263
X197715Y-108746
X199941Y-106507
X201608Y-138071
X202226Y-108845
X210261Y-145668
X212091Y-108470
X214039Y-147208
X233301Y-129818
X237619Y-104517
X242991Y-133956
X244540Y-136534
X246058Y-138133
X276620Y-131314
X286137Y-134530
X286410Y-106323
X286614Y-105307
X288949Y-105910
X290026Y-106098
X293342Y-105676
X305521Y-144932
X309648Y-122245
X321802Y-131314
X328946Y-101077
X329387Y-104369
X331415Y-97525
X333238Y-134463
X333699Y-96466
X334324Y-137731
X340851Y-107268
X343701Y-104562
X355055Y-119346
X360261Y-115635
X366747Y-131314
X373737Y-97992
X376758Y-148239
X376865Y-92941
X376935Y-134264
X377283Y-96198
X391489Y-142990
X395180Y-146656
X411816Y-131314
X418204Y-117502
X419971Y-110192
X420091Y-104388
X421105Y-104328
X423112Y-133542
X423718Y-134840
X424113Y-113188
X425347Y-110088
X425705Y-114963
X429572Y-110093
X432362Y-105071
X433160Y-110253
X434387Y-109949
X434724Y-116669
X435267Y-106322
X435302Y-107420
X436510Y-110237
X437782Y-110210
X439025Y-109899
X439299Y-142825
X442725Y-110236
X448934Y-109955
T2
X257353Y-121095
X257353Y-122365
X257353Y-123635
X197944Y-115752
X197944Y-117022
X197944Y-118292
X134589Y-114589
X134589Y-115859
X134589Y-117129
X347804Y-119890
X347804Y-121160
X347804Y-122430
X301864Y-120587
X301864Y-121857
X301864Y-123127
X347804Y-114365
X347804Y-115635
X347804Y-116905
X437311Y-114208
X437311Y-115478
X437311Y-116748
X292264Y-120587
X292264Y-121857
X292264Y-123127
X357404Y-114365
X357404Y-115635
X357404Y-116905
X181653Y-120961
X181653Y-122231
X181653Y-123501
X446917Y-119715
X446917Y-120985
X446917Y-122255
X157653Y-120961
X157653Y-122231
X157653Y-123501
X386818Y-119855
X386818Y-121125
X386818Y-122395
X172053Y-120961
X172053Y-122231
X172053Y-123501
X391618Y-119855
X391618Y-121125
X391618Y-122395
X442117Y-114203
X442117Y-115473
X442117Y-116743
X197944Y-121267
X197944Y-122537
X197944Y-123807
X226744Y-121267
X226744Y-122537
X226744Y-123807
X266953Y-121095
X266953Y-122365
X266953Y-123635
X100989Y-120114
X100989Y-121384
X100989Y-122654
X306664Y-120587
X306664Y-121857
X306664Y-123127
X338204Y-119890
X338204Y-121160
X338204Y-122430
X297064Y-115062
X297064Y-116332
X297064Y-117602
X343004Y-119890
X343004Y-121160
X343004Y-122430
X451723Y-119710
X451723Y-120980
X451723Y-122250
X271753Y-121095
X271753Y-122365
X271753Y-123635
X297064Y-120587
X297064Y-121857
X297064Y-123127
X176853Y-120961
X176853Y-122231
X176853Y-123501
X124989Y-114589
X124989Y-115859
X124989Y-117129
X162453Y-120961
X162453Y-122231
X162453Y-123501
X382018Y-119855
X382018Y-121125
X382018Y-122395
X207544Y-115752
X207544Y-117022
X207544Y-118292
X401218Y-114330
X401218Y-115600
X401218Y-116870
X432500Y-119720
X432500Y-120990
X432500Y-122260
X193144Y-121267
X193144Y-122537
X193144Y-123807
X115389Y-120114
X115389Y-121384
X115389Y-122654
X262153Y-115570
X262153Y-116840
X262153Y-118110
X115389Y-114589
X115389Y-115859
X115389Y-117129
X257353Y-115575
X257353Y-116845
X257353Y-118115
X333404Y-114365
X333404Y-115635
X333404Y-116905
X287464Y-120587
X287464Y-121857
X287464Y-123127
X352604Y-119890
X352604Y-121160
X352604Y-122430
X422884Y-119730
X422884Y-121000
X422884Y-122270
X271753Y-115570
X271753Y-116840
X271753Y-118110
X328604Y-119890
X328604Y-121160
X328604Y-122430
X152853Y-115446
X152853Y-116716
X152853Y-117986
X406018Y-114330
X406018Y-115600
X406018Y-116870
X217144Y-115752
X217144Y-117022
X217144Y-118292
X377218Y-119855
X377218Y-121125
X377218Y-122395
X221944Y-121267
X221944Y-122537
X221944Y-123807
X129789Y-114589
X129789Y-115859
X129789Y-117129
X451718Y-114203
X451718Y-115473
X451718Y-116743
X202744Y-121267
X202744Y-122537
X202744Y-123807
X105789Y-114589
X105789Y-115859
X105789Y-117129
X266953Y-115570
X266953Y-116840
X266953Y-118110
X152853Y-120961
X152853Y-122231
X152853Y-123501
X120189Y-114589
X120189Y-115859
X120189Y-117129
X252553Y-121095
X252553Y-122365
X252553Y-123635
X352604Y-114365
X352604Y-115635
X352604Y-116905
X282639Y-120587
X282639Y-121857
X282639Y-123127
X362204Y-119890
X362204Y-121160
X362204Y-122430
X422899Y-114208
X422899Y-115478
X422899Y-116748
X316264Y-115062
X316264Y-116332
X316264Y-117602
X217144Y-121267
X217144Y-122537
X217144Y-123807
X377218Y-114330
X377218Y-115600
X377218Y-116870
X176853Y-115446
X176853Y-116716
X176853Y-117986
X396418Y-119855
X396418Y-121125
X396418Y-122395
X446927Y-114198
X446927Y-115468
X446927Y-116738
X386818Y-114330
X386818Y-115600
X386818Y-116870
X202744Y-115752
X202744Y-117022
X202744Y-118292
X105789Y-120114
X105789Y-121384
X105789Y-122654
X212344Y-115752
X212344Y-117022
X212344Y-118292
X172053Y-115446
X172053Y-116716
X172053Y-117986
X134589Y-120114
X134589Y-121384
X134589Y-122654
X311464Y-115062
X311464Y-116332
X311464Y-117602
X357404Y-119890
X357404Y-121160
X357404Y-122430
X292264Y-115062
X292264Y-116332
X292264Y-117602
X343004Y-114365
X343004Y-115635
X343004Y-116905
X427705Y-114213
X427705Y-115483
X427705Y-116753
X287464Y-115062
X287464Y-116332
X287464Y-117602
X162453Y-115446
X162453Y-116716
X162453Y-117986
X382018Y-114330
X382018Y-115600
X382018Y-116870
X437311Y-119720
X437311Y-120990
X437311Y-122260
X181653Y-115446
X181653Y-116716
X181653Y-117986
X406018Y-119855
X406018Y-121125
X406018Y-122395
X396418Y-114330
X396418Y-115600
X396418Y-116870
X418073Y-119725
X418073Y-120995
X418073Y-122265
X238153Y-121095
X238153Y-122365
X238153Y-123635
X247753Y-121095
X247753Y-122365
X247753Y-123635
X110589Y-114589
X110589Y-115859
X110589Y-117129
X262153Y-121095
X262153Y-122365
X262153Y-123635
X167253Y-120961
X167253Y-122231
X167253Y-123501
X129789Y-120114
X129789Y-121384
X129789Y-122654
X311464Y-120587
X311464Y-121857
X311464Y-123127
X301864Y-115062
X301864Y-116332
X301864Y-117602
X306664Y-115062
X306664Y-116332
X306664Y-117602
X362204Y-114365
X362204Y-115635
X362204Y-116905
X221944Y-115752
X221944Y-117022
X221944Y-118292
X120189Y-120114
X120189Y-121384
X120189Y-122654
X427689Y-119725
X427689Y-120995
X427689Y-122265
X157653Y-115446
X157653Y-116716
X157653Y-117986
X401218Y-119855
X401218Y-121125
X401218Y-122395
X442117Y-119715
X442117Y-120985
X442117Y-122255
X247753Y-115575
X247753Y-116845
X247753Y-118115
X252553Y-115575
X252553Y-116845
X252553Y-118115
X110589Y-120114
X110589Y-121384
X110589Y-122654
X207544Y-121267
X207544Y-122537
X207544Y-123807
X124989Y-120114
X124989Y-121384
X124989Y-122654
X338204Y-114365
X338204Y-115635
X338204Y-116905
X242953Y-115575
X242953Y-116845
X242953Y-118115
X316264Y-120587
X316264Y-121857
X316264Y-123127
X242953Y-121095
X242953Y-122365
X242953Y-123635
X333404Y-119890
X333404Y-121160
X333404Y-122430
X212344Y-121267
X212344Y-122537
X212344Y-123807
X167253Y-115446
X167253Y-116716
X167253Y-117986
X391618Y-114330
X391618Y-115600
X391618Y-116870
X432510Y-114208
X432510Y-115478
X432510Y-116748
X148053Y-120961
X148053Y-122231
X148053Y-123501
X372418Y-119855
X372418Y-121125
X372418Y-122395
X226744Y-115752
X226744Y-117022
X226744Y-118292
T3
X375400Y-94449
X375400Y-102069
X377940Y-94449
X377940Y-102069
X380480Y-94449
X380480Y-102069
X383020Y-94449
X383020Y-102069
X385560Y-94449
X385560Y-102069
X388100Y-94449
X388100Y-102069
X390640Y-94449
X390640Y-102069
X393180Y-94449
X393180Y-102069
X395720Y-94449
X395720Y-102069
X398260Y-94449
X398260Y-102069
X103499Y-94561
X103499Y-102181
X106039Y-94561
X106039Y-102181
X108579Y-94561
X108579Y-102181
X111119Y-94561
X111119Y-102181
X113659Y-94561
X113659Y-102181
X116199Y-94561
X116199Y-102181
X118739Y-94561
X118739Y-102181
X121279Y-94561
X121279Y-102181
X123819Y-94561
X123819Y-102181
X126359Y-94561
X126359Y-102181
X193812Y-96789
X193812Y-104409
X196352Y-96789
X196352Y-104409
X198892Y-96789
X198892Y-104409
X201432Y-96789
X201432Y-104409
X203972Y-96789
X203972Y-104409
X206512Y-96789
X206512Y-104409
X209052Y-96789
X209052Y-104409
X211592Y-96789
X211592Y-104409
X214132Y-96789
X214132Y-104409
X216672Y-96789
X216672Y-104409
X240949Y-96515
X240949Y-104135
X243489Y-96515
X243489Y-104135
X246029Y-96515
X246029Y-104135
X248569Y-96515
X248569Y-104135
X251109Y-96515
X251109Y-104135
X253649Y-96515
X253649Y-104135
X256189Y-96515
X256189Y-104135
X258729Y-96515
X258729Y-104135
X261269Y-96515
X261269Y-104135
X263809Y-96515
X263809Y-104135
X150871Y-96495
X150871Y-104115
X153411Y-96495
X153411Y-104115
X155951Y-96495
X155951Y-104115
X158491Y-96495
X158491Y-104115
X161031Y-96495
X161031Y-104115
X163571Y-96495
X163571Y-104115
X166111Y-96495
X166111Y-104115
X168651Y-96495
X168651Y-104115
X171191Y-96495
X171191Y-104115
X173731Y-96495
X173731Y-104115
X331294Y-94306
X331294Y-101926
X333834Y-94306
X333834Y-101926
X336374Y-94306
X336374Y-101926
X338914Y-94306
X338914Y-101926
X341454Y-94306
X341454Y-101926
X343994Y-94306
X343994Y-101926
X346534Y-94306
X346534Y-101926
X349074Y-94306
X349074Y-101926
X351614Y-94306
X351614Y-101926
X354154Y-94306
X354154Y-101926
X420938Y-94508
X420938Y-102128
X423478Y-94508
X423478Y-102128
X426018Y-94508
X426018Y-102128
X428558Y-94508
X428558Y-102128
X431098Y-94508
X431098Y-102128
X433638Y-94508
X433638Y-102128
X436178Y-94508
X436178Y-102128
X438718Y-94508
X438718Y-102128
X441258Y-94508
X441258Y-102128
X443798Y-94508
X443798Y-102128
X287879Y-95242
X287879Y-102862
X290419Y-95242
X290419Y-102862
X292959Y-95242
X292959Y-102862
X295499Y-95242
X295499Y-102862
X298039Y-95242
X298039Y-102862
X300579Y-95242
X300579Y-102862
X303119Y-95242
X303119Y-102862
X305659Y-95242
X305659Y-102862
X308199Y-95242
X308199Y-102862
X310739Y-95242
X310739Y-102862
T4
X49743Y-108783
X52283Y-108783
X54823Y-108783
T6
X49997Y-135707
X52537Y-135707
X55077Y-135707
T7
X68966Y-110008
X68966Y-112548
X68966Y-115088
X68966Y-117628
X68966Y-120168
X68966Y-122708
X68966Y-125248
X68966Y-127788
X68966Y-130328
X68966Y-132868
X68966Y-135408
X68966Y-137948
X88905Y-99873
X88931Y-102388
X88931Y-104928
X88931Y-107468
X88931Y-110008
X88931Y-112548
X88931Y-115088
X88931Y-117628
X88931Y-120168
X88931Y-122708
X88931Y-125248
X88931Y-127788
X88931Y-130328
X88931Y-132868
X88931Y-135408
X88931Y-137948
T9
X283374Y-178370
X288624Y-150070
X288624Y-169120
X288624Y-185570
X294974Y-150070
X294974Y-159570
X294974Y-169070
X301374Y-140770
X301374Y-150070
X301374Y-169070
X301374Y-178370
X301374Y-185570
X307774Y-150070
X307774Y-159570
X307774Y-169070
X314124Y-150070
X314124Y-169070
X314124Y-185570
X238374Y-178370
X243624Y-150070
X243624Y-169120
X243624Y-185570
X249974Y-150070
X249974Y-159570
X249974Y-169070
X256374Y-140770
X256374Y-150070
X256374Y-169070
X256374Y-178370
X256374Y-185570
X262774Y-150070
X262774Y-159570
X262774Y-169070
X269124Y-150070
X269124Y-169070
X269124Y-185570
X418374Y-178370
X423624Y-150070
X423624Y-169120
X423624Y-185570
X429974Y-150070
X429974Y-159570
X429974Y-169070
X436374Y-140770
X436374Y-150070
X436374Y-169070
X436374Y-178370
X436374Y-185570
X442774Y-150070
X442774Y-159570
X442774Y-169070
X449124Y-150070
X449124Y-169070
X449124Y-185570
X328374Y-178370
X333624Y-150070
X333624Y-169120
X333624Y-185570
X339974Y-150070
X339974Y-159570
X339974Y-169070
X346374Y-140770
X346374Y-150070
X346374Y-169070
X346374Y-178370
X346374Y-185570
X352774Y-150070
X352774Y-159570
X352774Y-169070
X359124Y-150070
X359124Y-169070
X359124Y-185570
X193374Y-178370
X198624Y-150070
X198624Y-169120
X198624Y-185570
X204974Y-150070
X204974Y-159570
X204974Y-169070
X211374Y-140770
X211374Y-150070
X211374Y-169070
X211374Y-178370
X211374Y-185570
X217774Y-150070
X217774Y-159570
X217774Y-169070
X224124Y-150070
X224124Y-169070
X224124Y-185570
X103374Y-178370
X108624Y-150070
X108624Y-169120
X108624Y-185570
X114974Y-150070
X114974Y-159570
X114974Y-169070
X121374Y-140770
X121374Y-150070
X121374Y-169070
X121374Y-178370
X121374Y-185570
X127774Y-150070
X127774Y-159570
X127774Y-169070
X134124Y-150070
X134124Y-169070
X134124Y-185570
X373374Y-178370
X378624Y-150070
X378624Y-169120
X378624Y-185570
X384974Y-150070
X384974Y-159570
X384974Y-169070
X391374Y-140770
X391374Y-150070
X391374Y-169070
X391374Y-178370
X391374Y-185570
X397774Y-150070
X397774Y-159570
X397774Y-169070
X404124Y-150070
X404124Y-169070
X404124Y-185570
X148374Y-178370
X153624Y-150070
X153624Y-169120
X153624Y-185570
X159974Y-150070
X159974Y-159570
X159974Y-169070
X166374Y-140770
X166374Y-150070
X166374Y-169070
X166374Y-178370
X166374Y-185570
X172774Y-150070
X172774Y-159570
X172774Y-169070
X179124Y-150070
X179124Y-169070
X179124Y-185570
T10
X65980Y-151034
X65980Y-188634
X91580Y-151034
X91580Y-188634
T11
X239374Y-140770
X419374Y-140770
X329374Y-140770
X194374Y-140770
X104374Y-140770
X374374Y-140770
X149374Y-140770
X284374Y-140770
T12
X49825Y-190144
X462615Y-97180
X49835Y-97135
X462590Y-190149
T5
X48910Y-173716G85X48910Y-175716
G05
X50910Y-170016G85X52910Y-170016
G05
X54910Y-173716G85X54910Y-175716
G05
T8
X50399Y-155021G85X54899Y-155021
G05
X50399Y-162006G85X54899Y-162006
G05
T0
M30
